<svg width="87" height="68" viewBox="0 0 87 68" fill="none" xmlns="http://www.w3.org/2000/svg">
<g clip-path="url(#clip0_3240_30930)">
<path d="M67.6459 31.5538V17.3585C67.6459 17.3585 67.7695 14.7452 67.7931 14.6718C67.8168 14.5985 69.0546 13.8103 69.0546 13.8103L82.8813 13.6873C82.8813 13.6873 85.8012 14.3026 85.8248 14.4257C85.8485 14.5488 86.1954 15.5595 86.2217 15.6329C86.2479 15.7062 86.198 26.2302 86.0981 26.5026C85.9983 26.7749 85.5305 28.2282 85.5305 28.2282C85.5305 28.2282 84.9864 28.8436 84.763 28.82C84.5396 28.7965 80.6579 28.7467 80.6579 28.7467L71.6302 28.5503L69.9482 28.9693L67.6486 31.5564L67.6459 31.5538Z" fill="white"/>
<path d="M27.0569 29.0138V2.61849L26.413 1.5344L25.1515 1.03687H4.05275L2.47061 1.75697L1.78729 3.17886L2.07376 28.3643L2.44433 30.2366L3.43251 30.8651C3.43251 30.8651 4.64409 31.161 4.74396 31.161C4.84382 31.161 22.0582 30.9646 22.6285 31.0144C23.1988 31.0641 25.7192 30.9646 25.869 30.9148C26.0188 30.8651 27.0569 29.781 27.0569 29.781V29.0164V29.0138Z" fill="white"/>
<path d="M26.6837 27.1415H31.5563L26.5365 22.9937L26.6837 27.1415Z" fill="white"/>
<path d="M22.8229 25.552H5.9555C5.17606 25.552 4.54419 26.1816 4.54419 26.9582C4.54419 27.7348 5.17606 28.3644 5.9555 28.3644H22.8229C23.6024 28.3644 24.2343 27.7348 24.2343 26.9582C24.2343 26.1816 23.6024 25.552 22.8229 25.552Z" fill="#A9D0FF"/>
<path d="M74.65 21.2446H72.0192V22.0014H74.65V21.2446Z" fill="#5798F7"/>
<path d="M79.6952 17.558L78.6378 19.0388L79.2567 19.4775L80.3141 17.9967L79.6952 17.558Z" fill="#5798F7"/>
<path d="M77.47 24.9184C75.646 24.9184 74.1638 23.4415 74.1638 21.6243C74.1638 19.807 75.646 18.3301 77.47 18.3301C79.2939 18.3301 80.7762 19.807 80.7762 21.6243C80.7762 23.4415 79.2939 24.9184 77.47 24.9184ZM77.47 19.0842C76.0639 19.0842 74.9207 20.2233 74.9207 21.6243C74.9207 23.0252 76.0639 24.1643 77.47 24.1643C78.876 24.1643 80.0193 23.0252 80.0193 21.6243C80.0193 20.2233 78.876 19.0842 77.47 19.0842Z" fill="#83B7FF"/>
<path d="M70.6 23.0409C71.3635 23.0409 71.9824 22.4242 71.9824 21.6635C71.9824 20.9028 71.3635 20.2861 70.6 20.2861C69.8365 20.2861 69.2176 20.9028 69.2176 21.6635C69.2176 22.4242 69.8365 23.0409 70.6 23.0409Z" fill="#FFD14C"/>
<path d="M80.4634 18.0839C81.0252 18.0839 81.4805 17.6302 81.4805 17.0705C81.4805 16.5108 81.0252 16.0571 80.4634 16.0571C79.9017 16.0571 79.4464 16.5108 79.4464 17.0705C79.4464 17.6302 79.9017 18.0839 80.4634 18.0839Z" fill="#FFD14C"/>
<path d="M81.5305 25.924C82.0922 25.924 82.5475 25.4703 82.5475 24.9106C82.5475 24.3509 82.0922 23.8972 81.5305 23.8972C80.9687 23.8972 80.5134 24.3509 80.5134 24.9106C80.5134 25.4703 80.9687 25.924 81.5305 25.924Z" fill="#91E6F0"/>
<path d="M21.6666 38.4014C21.7849 38.5192 21.7849 38.7104 21.6666 38.8282C21.6061 38.8885 21.5299 38.9173 21.4511 38.9173C21.3722 38.9173 21.296 38.8885 21.2356 38.8282L20.7126 38.3071L20.1896 38.8282C20.1291 38.8885 20.0529 38.9173 19.9741 38.9173C19.8952 38.9173 19.819 38.8885 19.7586 38.8282C19.6403 38.7104 19.6403 38.5192 19.7586 38.4014L20.2816 37.8803L19.7586 37.3592C19.6403 37.2414 19.6403 37.0502 19.7586 36.9324C19.8768 36.8145 20.0687 36.8145 20.1869 36.9324L20.7099 37.4535L21.233 36.9324C21.3512 36.8145 21.5431 36.8145 21.6613 36.9324C21.7796 37.0502 21.7796 37.2414 21.6613 37.3592L21.1383 37.8803L21.6613 38.4014H21.6666Z" fill="#FFB400"/>
<path d="M24.2343 21.3833H5.09613V22.0563H24.2343V21.3833Z" fill="#FFD14C"/>
<path d="M24.2343 22.8811H5.09613V23.5541H24.2343V22.8811Z" fill="#FFD14C"/>
<path d="M10.9069 27.5738C11.248 27.5738 11.5245 27.2982 11.5245 26.9584C11.5245 26.6185 11.248 26.343 10.9069 26.343C10.5658 26.343 10.2893 26.6185 10.2893 26.9584C10.2893 27.2982 10.5658 27.5738 10.9069 27.5738Z" fill="white"/>
<path d="M14.4365 27.5738C14.7776 27.5738 15.0541 27.2982 15.0541 26.9584C15.0541 26.6185 14.7776 26.343 14.4365 26.343C14.0954 26.343 13.8189 26.6185 13.8189 26.9584C13.8189 27.2982 14.0954 27.5738 14.4365 27.5738Z" fill="white"/>
<path d="M17.9661 27.5738C18.3072 27.5738 18.5837 27.2982 18.5837 26.9584C18.5837 26.6185 18.3072 26.343 17.9661 26.343C17.625 26.343 17.3485 26.6185 17.3485 26.9584C17.3485 27.2982 17.625 27.5738 17.9661 27.5738Z" fill="white"/>
<path d="M10.4339 20.2024H4.82015C4.66771 20.2024 4.54419 20.0793 4.54419 19.9275V15.8006C4.54419 15.6487 4.66771 15.5256 4.82015 15.5256H10.4339C10.5863 15.5256 10.7098 15.6487 10.7098 15.8006V19.9275C10.7098 20.0793 10.5863 20.2024 10.4339 20.2024ZM5.0961 19.6525H10.1579V16.0755H5.0961V19.6525Z" fill="#83B7FF"/>
<path d="M7.62701 19.2203C7.86941 19.2203 8.06591 19.0245 8.06591 18.783C8.06591 18.5415 7.86941 18.3457 7.62701 18.3457C7.38461 18.3457 7.18811 18.5415 7.18811 18.783C7.18811 19.0245 7.38461 19.2203 7.62701 19.2203Z" fill="#FFB400"/>
<path d="M7.92925 16.4473H7.32214V17.9556H7.92925V16.4473Z" fill="#FFB400"/>
<path d="M31.5773 27.4479H27.6009C27.4143 27.4479 27.2645 27.2961 27.2645 27.1128C27.2645 26.9295 27.4169 26.7776 27.6009 26.7776H30.6469L26.8966 23.6458C26.8204 23.5829 26.7757 23.4887 26.7757 23.3891V3.17634C26.7757 2.18128 25.9636 1.37214 24.9649 1.37214C24.7783 1.37214 24.6285 1.22026 24.6285 1.03696C24.6285 0.85366 24.7809 0.701782 24.9649 0.701782C26.3368 0.701782 27.4511 1.81206 27.4511 3.17896V23.2294L31.7928 26.8535C31.9006 26.9452 31.9426 27.0944 31.8927 27.2254C31.8454 27.3589 31.7166 27.4479 31.5747 27.4479H31.5773Z" fill="#83B7FF"/>
<path d="M24.9675 31.3785H4.27089C2.899 31.3785 1.78467 30.2682 1.78467 28.9013V3.17639C1.78467 1.8095 2.899 0.699219 4.27089 0.699219H20.6994C20.886 0.699219 21.0358 0.851096 21.0358 1.0344C21.0358 1.2177 20.8834 1.36957 20.6994 1.36957H4.27089C3.2722 1.36957 2.4601 2.17872 2.4601 3.17378V28.9013C2.4601 29.8964 3.2722 30.7055 4.27089 30.7055H24.9649C25.9636 30.7055 26.7757 29.8964 26.7757 28.9013C26.7757 28.7154 26.9281 28.5661 27.1121 28.5661C27.2961 28.5661 27.4485 28.718 27.4485 28.9013C27.4485 30.2682 26.3342 31.3785 24.9623 31.3785H24.9675Z" fill="#83B7FF"/>
<path d="M23.8453 1.55813C23.9636 1.67597 23.9636 1.86712 23.8453 1.98496C23.7875 2.04519 23.7086 2.07399 23.6298 2.07399C23.5509 2.07399 23.4747 2.04519 23.4169 1.98496L22.8939 1.46386L22.3709 1.98496C22.3131 2.04519 22.2342 2.07399 22.1554 2.07399C22.0766 2.07399 22.0003 2.04519 21.9425 1.98496C21.8243 1.86712 21.8243 1.67597 21.9425 1.55813L22.4655 1.03703L21.9425 0.515938C21.8243 0.398102 21.8243 0.206945 21.9425 0.0891094C22.0608 -0.0287266 22.2526 -0.0287266 22.3709 0.0891094L22.8939 0.610207L23.4169 0.0891094C23.5352 -0.0287266 23.727 -0.0287266 23.8453 0.0891094C23.9636 0.206945 23.9636 0.398102 23.8453 0.515938L23.3223 1.03703L23.8453 1.55813Z" fill="#FFB400"/>
<path d="M69.0205 65.9934L49.1649 74.4698L22.9885 65.9934C16.6626 65.9934 12.292 59.3449 14.631 53.4871C18.7835 43.094 27.4906 34.0861 37.2383 30.2341C38.5918 32.9627 42.1451 35.2409 46.3133 35.2409C50.4816 35.2409 54.1268 33.0805 55.5145 30.4043C64.8155 34.2248 73.3543 43.2668 77.3885 53.5054C79.696 59.3658 75.357 63.6708 69.0231 65.9908L69.0205 65.9934Z" fill="#83B7FF"/>
<path d="M55.4566 31.08L49.5144 46.6448H43.0176L36.9466 30.6793L37.5011 30.407C38.9072 32.6563 42.3842 34.9345 46.3107 34.9345C50.2371 34.9345 53.4146 33.3188 54.8968 30.8155L55.454 31.0826L55.4566 31.08Z" fill="#FFD14C"/>
<path d="M86.198 62.3012L83.4516 50.4521C82.3741 45.8068 78.2242 42.5178 73.4384 42.5178C70.2531 42.5178 67.2491 43.9895 65.3043 46.5007L44.8047 72.9588L21.3354 65.8572C11.1356 62.7699 2.06847 73.1526 6.54683 82.7916L6.75708 83.242C10.581 91.4695 18.7414 96.6648 27.7218 96.6648H58.7681C76.8734 96.6648 90.2716 79.8797 86.198 62.3038V62.3012Z" fill="white"/>
<path d="M58.7681 97H27.7218C23.2461 97 18.8886 95.7274 15.1225 93.3209C11.3485 90.9092 8.34978 87.471 6.44963 83.3834L6.23938 82.933C4.11058 78.3505 4.85434 73.1395 8.17895 69.3321C11.5062 65.5247 16.5838 64.0688 21.4301 65.5378L44.676 72.5739L65.0336 46.2991C67.0284 43.725 70.169 42.1853 73.4358 42.1853C75.8248 42.1853 78.1717 43.0023 80.0429 44.4844C81.9142 45.9665 83.2388 48.0614 83.7775 50.3814L86.5239 62.2305C88.4898 70.7095 86.4977 79.4791 81.0627 86.2874C75.625 93.0983 67.4988 97.0026 58.7655 97.0026L58.7681 97ZM17.6797 65.6451C14.2815 65.6451 11.0279 67.0932 8.69143 69.7694C5.54292 73.3752 4.83857 78.3086 6.85436 82.6476L7.06461 83.098C8.9122 87.0704 11.8242 90.409 15.4904 92.7527C19.1462 95.0911 23.3775 96.327 27.7245 96.327H58.7707C67.2964 96.327 75.2308 92.5144 80.5396 85.8658C85.8485 79.2172 87.7907 70.6571 85.8722 62.3772L83.1257 50.5281C82.6211 48.3547 81.3807 46.3934 79.6277 45.0055C77.8773 43.6177 75.6802 42.853 73.441 42.853C70.3845 42.853 67.4436 44.2933 65.575 46.705L44.9309 73.3464L21.2408 66.1767C20.0582 65.818 18.8624 65.6451 17.6823 65.6451H17.6797Z" fill="#5798F7"/>
<path d="M79.3103 60.1167L63.2754 91.9241L63.879 92.2261L79.9139 60.4188L79.3103 60.1167Z" fill="#5798F7"/>
<path d="M36.7574 65.7002H30.7573C28.9334 65.7002 27.4537 67.1745 27.4537 68.9918C27.4537 69.9554 28.1817 70.7619 29.141 70.8667L29.8585 70.9452C30.9781 71.0657 31.9557 70.1937 31.9557 69.0703L36.9755 70.5891L36.7574 65.7002Z" fill="white"/>
<path d="M30.0635 71.2568C29.9846 71.2568 29.9058 71.2516 29.8269 71.2437L29.1095 71.1651C27.9925 71.0447 27.1515 70.1099 27.1515 68.9891C27.1515 67.0068 28.7704 65.3938 30.7599 65.3938H37.0491L37.2988 70.9976L32.2238 69.4605C32.1371 69.9318 31.8953 70.3665 31.53 70.6912C31.1252 71.0525 30.6022 71.2516 30.0635 71.2516V71.2568ZM30.7599 66.0013C29.1042 66.0013 27.7586 67.342 27.7586 68.9917C27.7586 69.8009 28.3683 70.4791 29.1752 70.5655L29.8926 70.644C30.3394 70.6912 30.7915 70.5472 31.1252 70.2486C31.4616 69.9475 31.6535 69.5181 31.6535 69.0703V68.6618L36.6549 70.1753L36.4683 66.0013H30.7573H30.7599Z" fill="#5798F7"/>
<path d="M48.6156 68.0385L45.5117 61.6099C45.3199 61.2145 44.7811 61.1543 44.5078 61.4973L43.0229 63.3592H40.5577C39.2147 63.3592 37.9584 64.0086 37.1831 65.0979L35.7692 67.088C34.8677 68.358 35.4775 70.136 36.9729 70.589L44.8021 72.9589L48.6156 68.0385Z" fill="white"/>
<path d="M44.9152 73.3071L36.8862 70.877C36.0793 70.6335 35.4591 70.0365 35.1858 69.243C34.9124 68.447 35.036 67.5986 35.5222 66.9125L36.9361 64.9224C37.7666 63.7519 39.1201 63.0553 40.5577 63.0553H42.8757L44.2686 61.3061C44.4631 61.0626 44.7627 60.9369 45.0729 60.9736C45.383 61.0076 45.6484 61.1961 45.7824 61.4763L48.9678 68.0725L44.9125 73.3044L44.9152 73.3071ZM40.5603 63.6602C39.3198 63.6602 38.1503 64.2625 37.4328 65.2733L36.0189 67.2634C35.6457 67.7897 35.5511 68.4391 35.7613 69.0493C35.9716 69.6594 36.4446 70.115 37.0623 70.3009L44.6891 72.6105L48.2582 68.0018L45.2358 61.7408C45.1727 61.6099 45.0518 61.5837 45.0045 61.5785C44.9572 61.5732 44.8337 61.5732 44.7417 61.6858L43.1648 63.6628H40.5551L40.5603 63.6602Z" fill="#004C85"/>
<path d="M40.1687 63.3591L41.3303 61.6623C41.6168 61.2433 42.2449 61.2695 42.4946 61.7094L43.4355 63.3591" fill="#5798F7"/>
<path d="M40.4184 63.5293L39.9164 63.1889L41.078 61.492C41.2725 61.2092 41.5931 61.0469 41.9374 61.0626C42.2817 61.0757 42.5892 61.2642 42.7574 61.5601L43.6983 63.2098L43.17 63.5083L42.2292 61.8586C42.1634 61.7408 42.0452 61.6701 41.9111 61.6648C41.7771 61.6596 41.6536 61.7198 41.5774 61.8324L40.4157 63.5293H40.4184Z" fill="#5798F7"/>
<path d="M39.0938 67.8657C38.6155 67.8657 38.2291 67.4075 38.2291 66.8445H38.8362C38.8362 67.0828 38.9729 67.2608 39.0964 67.2608C39.2199 67.2608 39.3566 67.0828 39.3566 66.8445H39.9637C39.9637 67.4075 39.5747 67.8657 39.099 67.8657H39.0938Z" fill="#5798F7"/>
<path d="M36.5971 70.3927C37.2706 70.3927 37.8165 69.8487 37.8165 69.1777C37.8165 68.5066 37.2706 67.9626 36.5971 67.9626C35.9236 67.9626 35.3776 68.5066 35.3776 69.1777C35.3776 69.8487 35.9236 70.3927 36.5971 70.3927Z" fill="#91E6F0"/>
<path d="M43.1595 63.6734L44.1293 62.4636C44.2949 62.2567 44.626 62.3091 44.718 62.5578L45.1333 63.6734H43.1595Z" fill="#91E6F0"/>
<path d="M36.4867 67.7532H35.3776V68.3581H36.4867V67.7532Z" fill="#5798F7"/>
<path d="M44.9178 73.3177L36.8836 70.8876C36.0741 70.6415 35.4538 70.0444 35.1805 69.2484C34.9072 68.4524 35.0307 67.5987 35.5169 66.9126L36.9309 64.9225C37.764 63.752 39.1201 63.0528 40.5603 63.0528H42.8757L44.2686 61.3062C44.4631 61.0627 44.7654 60.937 45.0781 60.9711C45.3909 61.0051 45.6563 61.1937 45.793 61.4765L48.9809 68.0805L44.9204 73.3203L44.9178 73.3177ZM40.5603 63.6708C39.3225 63.6708 38.1556 64.2731 37.4381 65.2813L36.0242 67.2714C35.6536 67.7951 35.559 68.4419 35.7666 69.0494C35.9742 69.6569 36.4473 70.1099 37.0649 70.2984L44.6891 72.6054L48.2529 68.0046L45.2332 61.7462C45.1727 61.6179 45.0545 61.5917 45.0098 61.5864C44.9625 61.5812 44.8442 61.5812 44.7548 61.6912L43.1753 63.6708H40.5603Z" fill="#5798F7"/>
<path d="M44.8047 72.9588L49.1675 67.3289H42.7206C41.3671 67.3289 40.2686 68.4234 40.2686 69.772C40.2686 70.8482 40.9755 71.7988 42.0084 72.1104L44.8074 72.9562L44.8047 72.9588Z" fill="white"/>
<path d="M44.9151 73.3071L41.9164 72.3985C40.7469 72.045 39.9611 70.9897 39.9611 69.772C39.9611 68.2585 41.1963 67.0251 42.718 67.0251H49.7824L44.9151 73.3045V73.3071ZM42.718 67.63C41.5327 67.63 40.5682 68.5911 40.5682 69.772C40.5682 70.7226 41.1805 71.5448 42.0925 71.8224L44.6917 72.608L48.5472 67.63H42.718Z" fill="#5798F7"/>
<path d="M36.1897 64.0817H34.6838C34.5576 64.0817 34.4446 64.0058 34.3973 63.8906C34.35 63.7754 34.3763 63.6418 34.4656 63.5528L35.4433 62.5787H34.5681V61.9607H36.1923C36.3185 61.9607 36.4315 62.0366 36.4788 62.1519C36.5261 62.2671 36.4998 62.4006 36.4105 62.4896L35.4328 63.4638H36.1897V64.0817Z" fill="#FFD14C"/>
<path d="M39.3408 61.6728H37.8349C37.7088 61.6728 37.5957 61.5969 37.5484 61.4816C37.5011 61.3664 37.5274 61.2329 37.6168 61.1439L38.5944 60.1697H37.7193V59.5518H39.3435C39.4696 59.5518 39.5826 59.6277 39.6299 59.7429C39.6772 59.8581 39.651 59.9917 39.5616 60.0807L38.5839 61.0548H39.3408V61.6728Z" fill="white"/>
<path d="M58.8863 40.4702L59.3568 40.6561C60.6709 41.1798 61.5092 42.4734 61.4462 43.8822L61.0966 47.2026L63.5802 48.6166L56.6866 57.6245L53.0256 49.7321C52.1583 47.8651 52.5105 45.6628 53.9139 44.1519L56.9336 40.9075C57.433 40.3707 58.2109 40.1953 58.8916 40.4676L58.8863 40.4702Z" fill="white"/>
<path d="M56.613 58.2738L52.7155 49.876C51.7877 47.878 52.1583 45.5423 53.6616 43.9266L56.6813 40.6822C57.27 40.0485 58.2083 39.839 59.0125 40.1585L59.4829 40.3444C60.9284 40.9205 61.8535 42.3476 61.7826 43.9004V43.9214L61.4541 47.0218L64.0796 48.517L56.613 58.2738ZM58.2346 40.6822C57.8404 40.6822 57.454 40.8419 57.1781 41.1378L54.1583 44.3822C52.8416 45.7963 52.5184 47.8414 53.3305 49.5906L56.7576 56.975L63.0783 48.716L60.7392 47.3831L61.1124 43.8559C61.165 42.5937 60.4133 41.4337 59.2359 40.965L58.7655 40.7791C58.5946 40.711 58.4159 40.677 58.2372 40.677L58.2346 40.6822Z" fill="#5798F7"/>
<path d="M56.5893 46.231C56.2188 46.231 55.8456 46.1211 55.5223 45.888C55.1228 45.6026 54.86 45.181 54.7812 44.6992C54.7023 44.2173 54.8153 43.7329 55.1018 43.3349L56.9179 40.8106C57.5276 39.9648 58.4501 39.805 59.5145 40.3602L59.2017 40.9572C58.4317 40.554 57.8798 40.6325 57.4671 41.2034L55.6511 43.7277C55.4698 43.9791 55.3988 44.2854 55.4487 44.5892C55.4987 44.8929 55.6669 45.1627 55.9192 45.3407C56.4395 45.7126 57.1675 45.5921 57.5407 45.0736L58.7681 43.3663L59.3173 43.7591L58.09 45.4664C57.7326 45.9639 57.1675 46.2284 56.5946 46.2284L56.5893 46.231Z" fill="#5798F7"/>
<path d="M56.4212 45.4978C56.8653 45.4978 57.2254 45.1391 57.2254 44.6965C57.2254 44.254 56.8653 43.8953 56.4212 43.8953C55.977 43.8953 55.6169 44.254 55.6169 44.6965C55.6169 45.1391 55.977 45.4978 56.4212 45.4978Z" fill="#FFD14C"/>
<path d="M54.7044 37.2836L54.7028 37.2815C54.1818 36.6412 53.2384 36.5429 52.5957 37.062L50.1723 39.0193C49.5296 39.5385 49.431 40.4784 49.952 41.1187L49.9536 41.1208C50.4746 41.7611 51.418 41.8594 52.0607 41.3403L54.4841 39.383C55.1268 38.8639 55.2254 37.9239 54.7044 37.2836Z" fill="white"/>
<path d="M51.1202 42.0099C51.0545 42.0099 50.9914 42.0073 50.9257 41.9994C50.4369 41.9497 49.998 41.7114 49.6905 41.3317C49.0519 40.5487 49.1727 39.3939 49.9612 38.7576L52.3843 36.8015C52.7654 36.4925 53.2437 36.3511 53.7326 36.4035C54.2214 36.4533 54.6603 36.6915 54.9678 37.0712C55.6064 37.8542 55.4856 39.009 54.6971 39.6453L52.274 41.6014C51.9428 41.8685 51.5407 42.0099 51.1202 42.0099ZM53.5381 37.066C53.2727 37.066 53.0177 37.155 52.8101 37.3252L50.387 39.2813C49.8902 39.682 49.814 40.4125 50.2161 40.9101C50.4106 41.151 50.6892 41.3002 50.9967 41.3317C51.3042 41.3631 51.609 41.2741 51.8482 41.0803L54.2713 39.1242C54.7681 38.7236 54.8443 37.993 54.4422 37.4955C54.2477 37.2545 53.9691 37.1053 53.6616 37.0739C53.6196 37.0686 53.5801 37.0686 53.5381 37.0686V37.066Z" fill="#5798F7"/>
<path d="M50.8705 41.2923C51.3147 41.2923 51.6747 40.9335 51.6747 40.491C51.6747 40.0484 51.3147 39.6897 50.8705 39.6897C50.4263 39.6897 50.0663 40.0484 50.0663 40.491C50.0663 40.9335 50.4263 41.2923 50.8705 41.2923Z" fill="#FFD14C"/>
<path d="M56.9594 38.6664L56.9572 38.6648C56.2849 38.1844 55.349 38.3379 54.8668 39.0078L53.0486 41.5335C52.5664 42.2034 52.7205 43.1359 53.3928 43.6163L53.3949 43.6179C54.0672 44.0983 55.0031 43.9448 55.4853 43.2749L57.3036 40.7492C57.7858 40.0793 57.6317 39.1468 56.9594 38.6664Z" fill="white"/>
<path d="M54.2687 44.2331C53.8981 44.2331 53.525 44.1231 53.2017 43.89C52.3791 43.3009 52.1899 42.1565 52.7786 41.3369L54.5946 38.8126C54.8811 38.4146 55.3042 38.1527 55.7878 38.0742C56.2714 37.9956 56.7576 38.1082 57.157 38.3936C57.5565 38.6791 57.8193 39.1007 57.8982 39.5825C57.977 40.0643 57.864 40.5487 57.5775 40.9468L55.7615 43.4711C55.4041 43.9686 54.839 44.2331 54.2661 44.2331H54.2687ZM53.5933 43.3454C54.1137 43.7172 54.8417 43.5968 55.2149 43.0783L57.0309 40.554C57.2122 40.3026 57.2832 39.9962 57.2333 39.6925C57.1833 39.3887 57.0151 39.119 56.7628 38.9409C56.5105 38.7602 56.203 38.6895 55.8982 38.7393C55.5933 38.7891 55.3226 38.9566 55.1439 39.208L53.3278 41.7323C53.1465 41.9837 53.0755 42.2901 53.1255 42.5938C53.1754 42.8976 53.3436 43.1673 53.5959 43.3454H53.5933Z" fill="#5798F7"/>
<path d="M54.1005 43.5442C54.5446 43.5442 54.9047 43.1855 54.9047 42.7429C54.9047 42.3004 54.5446 41.9417 54.1005 41.9417C53.6563 41.9417 53.2963 42.3004 53.2963 42.7429C53.2963 43.1855 53.6563 43.5442 54.1005 43.5442Z" fill="#FFD14C"/>
<path d="M50.8574 43.1255L49.5144 46.6448H43.0176L41.6746 43.1255C41.4828 42.6227 41.5511 42.0597 41.856 41.6172C42.1635 41.1746 42.6681 40.9102 43.2068 40.9102H49.3225C49.8613 40.9102 50.3659 41.1746 50.6734 41.6172C50.9809 42.0597 51.0492 42.6227 50.8574 43.1255Z" fill="#5798F7"/>
<path d="M43.8691 44.0236C43.4329 44.0236 43.0781 43.6701 43.0781 43.2355C43.0781 42.8008 43.4329 42.4473 43.8691 42.4473C44.3054 42.4473 44.6602 42.8008 44.6602 43.2355C44.6602 43.6701 44.3054 44.0236 43.8691 44.0236ZM43.8691 42.9396C43.7062 42.9396 43.5722 43.0705 43.5722 43.2355C43.5722 43.4004 43.7036 43.5287 43.8691 43.5287C44.0347 43.5287 44.1635 43.3978 44.1635 43.2355C44.1635 43.0731 44.0321 42.9396 43.8691 42.9396Z" fill="white"/>
<path d="M46.2792 39.9648C46.1083 39.9648 45.9691 39.826 45.9691 39.6558V36.7309C45.9691 36.5607 46.1083 36.4219 46.2792 36.4219C46.45 36.4219 46.5893 36.5607 46.5893 36.7309V39.6558C46.5893 39.826 46.45 39.9648 46.2792 39.9648Z" fill="white"/>
<path d="M44.1188 39.9648C43.9874 39.9648 43.8665 39.881 43.8245 39.7501L43.0912 37.5086C43.0387 37.3462 43.128 37.1708 43.291 37.1184C43.4539 37.066 43.63 37.1551 43.6826 37.3174L44.4158 39.5589C44.4684 39.7213 44.379 39.8967 44.2161 39.9491C44.1845 39.9596 44.153 39.9648 44.1188 39.9648Z" fill="white"/>
<path d="M20.1817 49.4439C27.6114 47.5376 42.2555 43.7773 42.2555 43.7773L42.9335 45.5553C43.1122 46.0241 43.5643 46.3357 44.0689 46.3357H48.3528C48.9231 46.3357 49.4329 45.9848 49.6353 45.4558L50.9467 42.0203H51.1123C52.316 42.0203 53.2937 42.9944 53.2937 44.1937V44.2277H53.5039C54.3765 44.2277 55.0861 44.9347 55.0861 45.8041V46.4535C55.7773 46.4535 56.3213 47.0401 56.2687 47.7261C56.2346 48.1792 56.0664 48.6112 55.7852 48.9674L52.9678 52.5391C52.0716 53.6729 50.7076 54.3407 49.2595 54.3538L42.2686 54.4114L27.2067 64.3332C25.8506 65.2261 24.2605 65.7027 22.6364 65.7027H22.0266C16.3735 65.7027 12.4418 60.0989 14.3866 54.8094L14.4471 54.6444C15.4011 52.052 17.5378 50.1221 20.1764 49.4466L20.1817 49.4439Z" fill="white"/>
<path d="M22.639 66.0379H22.0293C19.2224 66.0379 16.6915 64.7234 15.0831 62.4295C13.4746 60.1383 13.1067 57.3155 14.0712 54.689L14.1317 54.5241C15.1172 51.8426 17.3459 49.8211 20.0949 49.1141L42.4605 43.3742L43.2463 45.4324C43.3751 45.7702 43.7036 45.9953 44.0663 45.9953H48.3501C48.7759 45.9953 49.1649 45.7283 49.3147 45.3328L50.7102 41.6799H51.1097C52.3975 41.6799 53.4619 42.6462 53.6117 43.89C54.6209 43.9476 55.4225 44.7803 55.4225 45.799V46.1498C55.7195 46.2179 55.9928 46.3724 56.203 46.6002C56.4895 46.9092 56.6367 47.3282 56.6051 47.7472C56.5657 48.2683 56.3739 48.7606 56.0506 49.1717L53.2332 52.7434C52.2687 53.9663 50.8206 54.6733 49.2621 54.6864L42.3711 54.744L27.3933 64.6108C25.9767 65.543 24.3315 66.0353 22.6364 66.0353L22.639 66.0379ZM20.2658 49.7687C17.7322 50.4181 15.677 52.2852 14.7677 54.7571L14.7072 54.9221C13.8189 57.339 14.158 59.934 15.6376 62.0446C17.1173 64.1552 19.4484 65.365 22.0293 65.365H22.639C24.2027 65.365 25.7192 64.9093 27.0227 64.0504L42.1687 54.0737L49.2595 54.0161C50.613 54.0056 51.8692 53.3902 52.705 52.3297L55.5223 48.7579C55.7641 48.4516 55.906 48.085 55.935 47.6974C55.9534 47.4591 55.8719 47.2313 55.7116 47.0585C55.5486 46.883 55.3279 46.7862 55.0887 46.7862H54.7523V45.8016C54.7523 45.1181 54.1951 44.5604 53.5066 44.5604H52.9573V44.1885C52.9573 43.1987 52.1662 42.3869 51.1806 42.3529L49.9533 45.5711C49.7036 46.2284 49.0624 46.6683 48.3554 46.6683H44.0715C43.4302 46.6683 42.8468 46.2677 42.6208 45.6706L42.0505 44.1754L20.2684 49.7661L20.2658 49.7687Z" fill="#5798F7"/>
<path d="M52.9939 44.0829L51.2888 47.6272L51.8978 47.9181L53.603 44.3737L52.9939 44.0829Z" fill="#5798F7"/>
<path d="M54.7719 46.192L53.0668 49.7363L53.6759 50.0272L55.381 46.4829L54.7719 46.192Z" fill="#5798F7"/>
<path d="M55.3357 30.6636C53.9481 33.3398 50.4316 35.2409 46.3107 35.2409C42.1898 35.2409 38.5892 33.2953 37.2383 30.5668C38.4 30.098 39.5695 29.7 40.7443 29.3805C41.5669 29.1553 42.1556 28.4326 42.2108 27.5842L42.4473 23.8789H49.5617L49.7956 27.5397C49.8508 28.409 50.4684 29.1422 51.3173 29.3517C52.6629 29.6817 54.0059 30.1242 55.3357 30.6636Z" fill="white"/>
<path d="M46.3133 35.5787C42.1477 35.5787 38.3789 33.6252 36.9361 30.7186C36.894 30.6348 36.8888 30.5379 36.9229 30.4489C36.9571 30.3599 37.0254 30.2918 37.1122 30.2577C38.2869 29.7838 39.4801 29.3805 40.6549 29.0584C41.3382 28.8725 41.8297 28.2702 41.8744 27.5632L42.1109 23.8579C42.1214 23.6799 42.2686 23.5437 42.4473 23.5437H49.5617C49.7404 23.5437 49.8876 23.6825 49.8981 23.8579L50.132 27.5187C50.1793 28.244 50.6865 28.8489 51.3988 29.0244C52.7417 29.3543 54.111 29.8021 55.4645 30.352C55.5512 30.3887 55.6196 30.4594 55.6537 30.5458C55.6853 30.6348 55.68 30.7317 55.638 30.8155C54.9152 32.2112 53.659 33.3974 52.0059 34.2537C50.3317 35.1204 48.3633 35.5761 46.3133 35.5761V35.5787ZM37.714 30.7422C39.1595 33.2455 42.5551 34.9057 46.3133 34.9057C50.0716 34.9057 53.383 33.2822 54.8574 30.8338C53.6511 30.3599 52.4369 29.9723 51.2411 29.679C50.2424 29.4329 49.5275 28.5818 49.4618 27.5632L49.2463 24.2167H42.7653L42.5472 27.6077C42.4841 28.6002 41.7955 29.4434 40.8336 29.7078C39.8008 29.9906 38.7521 30.3389 37.714 30.7448V30.7422Z" fill="#5798F7"/>
<path d="M51.7588 23.2712C51.4014 24.2218 50.5367 24.7769 49.8271 24.5124C49.7272 24.4758 49.6353 24.4234 49.5538 24.3579L49.517 24.7926C49.3593 26.6125 47.8324 28.0108 45.9979 28.0108C44.1635 28.0108 42.6365 26.6125 42.4788 24.7926L42.4473 24.4208C42.3895 24.4574 42.329 24.4862 42.2633 24.5098C41.5537 24.7743 40.6891 24.2191 40.3316 23.2686C39.9742 22.3181 40.258 21.3335 40.9676 21.069C41.3619 20.9224 41.8008 21.0271 42.1766 21.3125L42.2449 20.0216C42.2738 19.4664 42.7364 19.0317 43.2935 19.0317H48.6944C49.2542 19.0317 49.7167 19.469 49.743 20.0268L49.8087 21.3989C50.2056 21.0507 50.6918 20.9093 51.1228 21.069C51.8324 21.3335 52.1162 22.3207 51.7588 23.2686V23.2712Z" fill="white"/>
<path d="M45.9953 28.3488C43.9953 28.3488 42.3527 26.8667 42.1451 24.8923C41.764 24.963 41.3567 24.8739 40.9782 24.6304C40.5524 24.3581 40.2082 23.9155 40.011 23.3892C39.8139 22.8629 39.7798 22.3051 39.9217 21.8207C40.0715 21.2996 40.4 20.9225 40.8468 20.7549C41.1701 20.6345 41.5249 20.6397 41.8665 20.7628L41.9059 20.0034C41.9454 19.2702 42.5525 18.6941 43.291 18.6941H48.6918C49.4329 18.6941 50.0427 19.2728 50.0768 20.0112L50.1136 20.8047C50.4868 20.6423 50.8811 20.6214 51.2359 20.7549C52.1189 21.0849 52.4921 22.2658 52.069 23.3892C51.8719 23.9155 51.5276 24.3581 51.1018 24.6304C50.6918 24.8949 50.2503 24.9787 49.8403 24.8713C49.6458 26.8562 47.998 28.3488 45.9901 28.3488H45.9953ZM42.7338 23.8475L42.8126 24.764C42.9572 26.4241 44.3238 27.6732 45.9953 27.6732C47.6668 27.6732 49.0361 26.4215 49.178 24.764L49.27 23.7087L49.7615 24.091C49.8167 24.1355 49.8797 24.1695 49.9454 24.1957C50.1846 24.2848 50.4684 24.2376 50.7418 24.0622C51.0466 23.8658 51.2937 23.5437 51.4435 23.1509C51.7299 22.3889 51.5302 21.5798 51.0046 21.3834C50.7102 21.2734 50.3475 21.3729 50.0322 21.6505L49.5065 22.114L49.4067 20.0427C49.3883 19.663 49.0755 19.3671 48.6944 19.3671H43.2936C42.9151 19.3671 42.6024 19.663 42.5814 20.04L42.4789 21.9673L41.9716 21.5824C41.6747 21.3572 41.354 21.2865 41.086 21.386C40.8442 21.475 40.6628 21.6976 40.5735 22.0066C40.4736 22.3522 40.4999 22.7607 40.6471 23.1535C40.7942 23.5463 41.0439 23.871 41.3488 24.0648C41.6221 24.2402 41.9033 24.2874 42.1451 24.1983C42.1872 24.1826 42.2292 24.1617 42.2686 24.1381L42.7364 23.8501L42.7338 23.8475Z" fill="#5798F7"/>
<path d="M60.3449 10.2385C60.3449 11.1472 59.6038 11.8856 58.6919 11.8856H58.6288L54.1057 11.794C54.0689 11.794 54.0322 11.794 53.9927 11.794C52.0085 11.794 50.1898 12.8519 49.2069 14.5409C49.0255 14.8499 48.6918 15.0384 48.3317 15.0384H48.2213C47.7614 15.0384 47.3567 14.7294 47.2384 14.2869C47.0045 13.4096 46.8915 12.5324 46.8915 11.6735C46.8915 7.89753 49.0387 4.45148 52.337 2.7337C52.2792 2.21522 51.835 1.81196 51.3015 1.81196V1.1416C52.1031 1.1416 52.7785 1.6915 52.9651 2.43518C53.6537 2.13404 54.3869 1.90884 55.1544 1.76482C55.496 1.67317 55.8535 1.62342 56.224 1.62342C58.4317 1.6208 60.2319 3.32026 60.3397 5.51725C60.3975 6.66418 59.9796 7.71423 59.2648 8.49195C58.5841 9.12565 57.6721 9.5132 56.6708 9.5132V10.1312C57.8403 10.1312 58.9047 9.67555 59.6984 8.93449C60.0927 9.23563 60.3449 9.70959 60.3449 10.2412V10.2385Z" fill="#FFD14C"/>
<path d="M48.0058 17.1044C47.2936 17.1044 46.7548 16.7405 46.7548 16.2586C46.7548 15.7768 47.291 15.4128 48.0058 15.4128C48.7207 15.4128 49.2568 15.7768 49.2568 16.2586C49.2568 16.7405 48.7207 17.1044 48.0058 17.1044ZM48.0058 16.0177C47.5906 16.0177 47.3619 16.1984 47.3619 16.2586C47.3619 16.3189 47.5906 16.4996 48.0058 16.4996C48.4211 16.4996 48.6497 16.3189 48.6497 16.2586C48.6497 16.1984 48.4211 16.0177 48.0058 16.0177Z" fill="#5798F7"/>
<path d="M48.8468 17.7958C49.8271 18.0969 50.429 19.0763 50.2503 20.0818L50.0689 21.1135C50.0164 21.4225 49.6353 21.543 49.4145 21.3178C48.994 20.8909 48.3606 20.2232 47.651 19.4036C46.8757 20.4851 44.8994 21.3937 42.5367 21.1476C40.0031 20.8857 37.9611 19.4088 37.9611 17.9896C37.9611 16.5703 39.4959 15.2322 42.3816 16.0021L48.8495 17.7932L48.8468 17.7958Z" fill="#FFD14C"/>
<path d="M49.5065 22.4308L48.8731 22.1952C49.0702 21.6688 49.4145 21.2263 49.8403 20.9539C50.2976 20.6607 50.7943 20.59 51.2384 20.7576L51.0019 21.3886C50.7627 21.2996 50.4789 21.3467 50.2056 21.5222C49.9007 21.7186 49.651 22.0407 49.5039 22.4334L49.5065 22.4308Z" fill="#5798F7"/>
<path d="M42.5814 22.4308C42.4342 22.038 42.1845 21.7133 41.8797 21.5196C41.6063 21.3441 41.3251 21.297 41.0833 21.386L40.8468 20.7549C41.2936 20.59 41.7903 20.658 42.245 20.9513C42.6707 21.2237 43.015 21.6662 43.2121 22.1925L42.5787 22.4282L42.5814 22.4308Z" fill="#5798F7"/>
<path d="M44.2318 24.688C44.2318 25.2327 43.7877 25.6752 43.241 25.6752C43.1543 25.6752 43.0676 25.6647 42.9861 25.6412C42.881 25.3662 42.8126 25.0729 42.7864 24.7744L42.7075 23.8684C42.8573 23.7794 43.0544 23.7008 43.241 23.7008C43.7877 23.7008 44.2318 24.1433 44.2318 24.688Z" fill="#A9D0FF"/>
<path d="M49.2936 23.7663L49.2043 24.7692C49.178 25.0809 49.1044 25.3846 48.9914 25.6727C48.9704 25.6727 48.9493 25.6727 48.9283 25.6727C48.3817 25.6727 47.9375 25.2301 47.9375 24.6854C47.9375 24.1408 48.3817 23.6982 48.9283 23.6982C49.0518 23.6982 49.1832 23.7244 49.291 23.7637L49.2936 23.7663Z" fill="#A9D0FF"/>
<path d="M46.1688 24.8504H45.4408C45.3514 24.8504 45.2673 24.8112 45.2121 24.7405C45.1569 24.6698 45.1385 24.5807 45.1569 24.4943L45.7193 22.1795C45.7561 22.025 45.9138 21.9307 46.0689 21.9674C46.224 22.004 46.3186 22.1612 46.2818 22.3156L45.8061 24.2743H46.1661C46.3264 24.2743 46.4552 24.4027 46.4552 24.5624C46.4552 24.7221 46.3264 24.8504 46.1661 24.8504H46.1688Z" fill="#5798F7"/>
<path d="M46.3475 25.8192C46.2791 25.8192 46.2082 25.8113 46.1399 25.7982C45.9822 25.7668 45.8823 25.6149 45.9138 25.4578C45.9454 25.3007 46.0978 25.2012 46.2555 25.2326C46.5025 25.2824 46.7443 25.1226 46.7943 24.8765C46.8258 24.7194 46.9782 24.6199 47.1359 24.6513C47.2936 24.6827 47.3935 24.8346 47.3619 24.9917C47.3067 25.2614 47.1491 25.4945 46.9204 25.6464C46.7496 25.759 46.5498 25.8192 46.3501 25.8192H46.3475Z" fill="#5798F7"/>
<path d="M44.4841 23.6143C44.6554 23.6143 44.7943 23.476 44.7943 23.3053C44.7943 23.1347 44.6554 22.9963 44.4841 22.9963C44.3129 22.9963 44.174 23.1347 44.174 23.3053C44.174 23.476 44.3129 23.6143 44.4841 23.6143Z" fill="#5798F7"/>
<path d="M47.2726 23.6143C47.4439 23.6143 47.5827 23.476 47.5827 23.3053C47.5827 23.1347 47.4439 22.9963 47.2726 22.9963C47.1013 22.9963 46.9625 23.1347 46.9625 23.3053C46.9625 23.476 47.1013 23.6143 47.2726 23.6143Z" fill="#5798F7"/>
<path d="M20.568 17.5209L20.5627 17.513C20.4392 17.2669 20.0214 17.2224 19.6298 17.4162C20.0214 17.2224 20.2395 16.8663 20.1186 16.6175L20.1133 16.6096C19.9898 16.3635 19.5719 16.319 19.1803 16.5128C19.5719 16.319 19.7901 15.9629 19.6692 15.7141L19.6639 15.7062C19.5404 15.4601 19.1225 15.4156 18.7309 15.6093C19.1225 15.4156 19.3407 15.0594 19.2198 14.8107L19.2145 14.8028C19.1173 14.609 18.8387 14.5436 18.5338 14.6169L18.1527 13.8523C17.9293 13.4045 17.9793 12.8677 18.2841 12.4723C19.4957 10.9116 19.7848 8.74081 18.8466 6.85544C18.7625 6.68523 18.6679 6.52026 18.568 6.36314C18.5338 6.31077 18.497 6.26364 18.4629 6.21388C18.3919 6.11176 18.3236 6.00963 18.2474 5.91275C18.2027 5.85514 18.1527 5.80277 18.1054 5.74778C18.0345 5.66398 17.9635 5.58281 17.8873 5.50425C17.8321 5.44926 17.7743 5.39951 17.7191 5.34452C17.6429 5.27381 17.5693 5.20311 17.4904 5.13765C17.43 5.08789 17.3669 5.04076 17.3038 4.99363C17.225 4.9334 17.1462 4.87317 17.0621 4.81818C16.9964 4.77366 16.9254 4.73177 16.8571 4.68987C16.773 4.64012 16.6915 4.59036 16.6048 4.54323C16.5338 4.50395 16.4602 4.46991 16.3866 4.43325C16.2999 4.39135 16.2158 4.35207 16.1264 4.31541C16.0502 4.28399 15.9714 4.25519 15.8952 4.22638C15.8058 4.19496 15.7191 4.16354 15.6297 4.13735C15.5509 4.11378 15.4694 4.09022 15.3879 4.06927C15.2986 4.0457 15.2066 4.02737 15.1146 4.00904C15.0305 3.99333 14.949 3.97762 14.8649 3.96452C14.7729 3.95143 14.681 3.94096 14.589 3.93048C14.5049 3.92263 14.4181 3.91477 14.334 3.90953C14.2421 3.9043 14.1501 3.9043 14.0581 3.9043C13.9714 3.9043 13.8846 3.9043 13.7979 3.90953C13.7059 3.91477 13.6139 3.92525 13.5219 3.9331C13.4352 3.94096 13.3459 3.94881 13.2591 3.96452C13.1671 3.97762 13.0752 3.99857 12.9832 4.01951C12.8964 4.03784 12.8097 4.05356 12.723 4.07712C12.631 4.10069 12.539 4.13211 12.447 4.16354C12.3629 4.18972 12.2762 4.21329 12.1921 4.24733C12.0975 4.28399 12.0055 4.32851 11.9109 4.36779C11.832 4.40183 11.7506 4.43325 11.6744 4.47253H11.6691C11.5009 4.56156 11.3327 4.65321 11.1698 4.75795C9.14609 6.05415 8.23675 8.6125 9.00417 10.8854C9.75844 13.1217 11.769 14.4572 13.8978 14.5279C14.3814 14.5436 14.8176 14.8238 15.0331 15.2558L15.6928 16.5808L17.2986 15.7874L18.8623 18.9271L20.0871 18.3222C20.4786 18.1284 20.6968 17.7723 20.5759 17.5235L20.568 17.5209Z" fill="#FFD14C"/>
<path d="M15.9136 10.3172C15.8689 10.5791 15.7769 10.9614 15.5798 11.0452C15.4826 11.0871 15.3748 11.0347 15.2855 10.9614C14.4418 10.2806 14.8334 10.71 14.5207 11.2311C14.3393 11.5322 14.1186 11.5008 13.8952 11.417C13.6928 11.3516 13.6902 11.5008 13.7165 11.5558L16.6915 16.0572L17.727 15.5465L16.0844 10.291C16.0687 10.2099 15.9556 10.2072 15.9136 10.3172ZM17.4931 15.303L16.6521 15.7194L13.9188 11.5427C13.9188 11.5427 14.3262 11.7051 14.5706 11.362C14.7546 11.108 14.7178 10.7729 14.7861 10.7467C14.8518 10.7205 14.9832 10.8828 15.317 11.1133C15.8058 11.4511 15.9898 10.545 15.9898 10.545L17.4931 15.3056V15.303Z" fill="white"/>
<path d="M16.6626 16.1592L13.6481 11.6003C13.6139 11.5322 13.6113 11.4379 13.6665 11.3751C13.7033 11.3332 13.7795 11.2913 13.9214 11.3384C14.1501 11.4275 14.3078 11.4275 14.4523 11.1892C14.5469 11.0321 14.5706 10.8828 14.589 10.7728C14.6074 10.6628 14.6232 10.5712 14.7073 10.5372C14.8097 10.4979 14.9201 10.5633 15.3354 10.8985C15.3958 10.9457 15.4799 10.998 15.5456 10.9692C15.6639 10.9195 15.769 10.6786 15.8321 10.3041L15.8374 10.2884C15.8768 10.1863 15.9635 10.1444 16.0292 10.1496C16.0975 10.1548 16.1501 10.2046 16.1632 10.2727L17.8242 15.5832L16.6626 16.1566V16.1592ZM16.6311 15.8162L16.7178 15.9498L17.6245 15.502L17.5772 15.3501L16.6311 15.8188V15.8162ZM14.0923 11.6579L16.6784 15.612L17.3906 15.2585L15.9872 10.8173C15.9215 10.9823 15.8137 11.1735 15.6481 11.2416C15.5272 11.2887 15.4011 11.2677 15.267 11.1761C15.1278 11.0792 15.0226 10.9928 14.9438 10.9299C14.9017 10.8959 14.8571 10.8592 14.8255 10.8383C14.8203 10.8592 14.8176 10.8854 14.8124 10.9116C14.7914 11.0425 14.7572 11.2389 14.6337 11.4065C14.4812 11.6186 14.2605 11.6658 14.0896 11.6579H14.0923ZM13.7848 11.4851C13.7848 11.4851 13.7848 11.5086 13.7874 11.5165L15.5325 14.156L13.7848 11.4825V11.4851ZM16.0029 10.3172L16.2605 11.1368L16.0029 10.3146V10.3172Z" fill="white"/>
<path d="M11.9266 7.87665C12.2394 8.50511 11.9818 9.26712 11.3511 9.57873C10.7203 9.89034 9.95553 9.63372 9.64278 9.00526C9.33003 8.3768 9.58759 7.61479 10.2183 7.30318C10.8491 6.99157 11.6139 7.24819 11.9266 7.87665Z" fill="white"/>
<path d="M18.7335 15.6095L16.2289 16.848C15.8373 17.0418 15.4194 16.9999 15.2959 16.7512L15.2907 16.7433C15.1671 16.4972 15.3853 16.1384 15.7769 15.9446L18.2815 14.706C18.6731 14.5123 19.091 14.5542 19.2145 14.8029L19.2197 14.8108C19.3433 15.0569 19.1251 15.4157 18.7335 15.6095Z" fill="#83B7FF"/>
<path d="M19.183 16.5128L16.6784 17.7514C16.2868 17.9451 15.8689 17.9032 15.7454 17.6545L15.7401 17.6466C15.6166 17.4005 15.8347 17.0417 16.2263 16.848L18.731 15.6094C19.1225 15.4156 19.5404 15.4575 19.6639 15.7063L19.6692 15.7141C19.7927 15.9603 19.5746 16.319 19.183 16.5128Z" fill="#83B7FF"/>
<path d="M19.6324 17.4161L17.1278 18.6547C16.7362 18.8485 16.3183 18.8066 16.1948 18.5578L16.1895 18.5499C16.066 18.3038 16.2841 17.9451 16.6757 17.7513L19.1804 16.5127C19.572 16.3189 19.9898 16.3608 20.1133 16.6096L20.1186 16.6174C20.2421 16.8636 20.024 17.2223 19.6324 17.4161Z" fill="#83B7FF"/>
<path d="M20.0818 18.3197L17.5772 19.5583C17.1856 19.752 16.7677 19.7101 16.6442 19.4614L16.6389 19.4535C16.5154 19.2074 16.7335 18.8486 17.1251 18.6548L19.6298 17.4163C20.0214 17.2225 20.4392 17.2644 20.5627 17.5131L20.568 17.521C20.6915 17.7671 20.4734 18.1259 20.0818 18.3197Z" fill="#83B7FF"/>
<path d="M67.1151 32.7768V15.7508C67.1151 14.3682 68.2452 13.2422 69.6329 13.2422H83.9431C85.3308 13.2422 86.4609 14.3682 86.4609 15.7508V26.6519C86.4609 28.0345 85.3308 29.1605 83.9431 29.1605H70.5291L67.1177 32.7742L67.1151 32.7768ZM69.6329 14.0304C68.6789 14.0304 67.9036 14.8029 67.9036 15.7534V30.7971L70.1874 28.3776H83.9431C84.8971 28.3776 85.6724 27.6051 85.6724 26.6545V15.7508C85.6724 14.8002 84.8971 14.0278 83.9431 14.0278H69.6329V14.0304Z" fill="#83B7FF"/>
</g>
<defs>
<clipPath id="clip0_3240_30930">
<rect width="87" height="68" fill="white"/>
</clipPath>
</defs>
</svg>
