<?xml version="1.0" ?><svg style="enable-background:new 0 0 24 24;" version="1.1" viewBox="0 0 24 24" xml:space="preserve" xmlns="http://www.w3.org/2000/svg" xmlns:xlink="http://www.w3.org/1999/xlink"><style type="text/css">
	.st0{opacity:0.2;fill:none;stroke:#000000;stroke-width:5.000000e-02;stroke-miterlimit:10;}
</style><g id="grid_system"/><g id="_icons"><g><path d="M21.1,2.9c-1.1-1.1-3-1.1-4.2,0l-8.1,7.9c-0.7,0.7-1.2,1.6-1.4,2.6L7,15.6c-0.1,0.3,0,0.7,0.3,0.9    c0.2,0.2,0.4,0.3,0.7,0.3c0.1,0,0.1,0,0.2,0l2.2-0.4c1-0.2,1.9-0.7,2.6-1.4L21.1,7C21.7,6.5,22,5.7,22,4.9    C22,4.1,21.7,3.4,21.1,2.9z M11.7,13.5c-0.4,0.4-1,0.7-1.6,0.8l-0.8,0.2l0.2-0.7c0.1-0.6,0.4-1.1,0.9-1.6l6.2-6.1l1.4,1.3    L11.7,13.5z M19.7,5.6L19.3,6l-1.4-1.3l0.4-0.4C18.5,4.1,18.8,4,19,4c0.3,0,0.5,0.1,0.7,0.3C19.9,4.5,20,4.7,20,4.9    C20,5.1,20,5.4,19.7,5.6z"/><path d="M20,9.9c-0.6,0-1,0.4-1,1V16c0,1.7-1.3,3-3,3H8c-1.7,0-3-1.3-3-3V8c0-1.7,1.3-3,3-3h5c0.6,0,1-0.4,1-1s-0.4-1-1-1H8    C5.2,3,3,5.2,3,8v8c0,2.8,2.2,5,5,5h8c2.8,0,5-2.2,5-5v-5.1C21,10.4,20.6,9.9,20,9.9z"/></g></g></svg>